# xmcd CD database file
#
# Track frame offsets:
#	150
#	20603
#	40771
#
# Disc length: 840 seconds
#
# Revision: 1
# Processed by: cddbd v1.5.2PL0 Copyright (c) Steve Scherf et al.
# Submitted via: CDex 1.70beta3
#
DISCID=1b034603
DTITLE=Area 3 - Seventh Herven
DYEAR=1900
DGENRE=JPop
TTITLE0=Seventh Heaven
TTITLE1=Be A Girl
TTITLE2=Seventh Heaven Night Cover Ver
EXTD=
EXTT0=
EXTT1=
EXTT2=
PLAYORDER=
